#!OML:ASF H:\Dans Jumps\Project 1\Capture day 1\Session 1\subject.ASF
:FULLY-SPECIFIED
:DEGREES
307
root 0.428334 16.8657 -15.2971 13.8055 -0.922439 -2.25044
lowerback 9.26307 -0.0732278 0.346742
upperback 4.92974 -0.0521147 1.9703
thorax -0.0819905 -0.045334 1.84338
lowerneck -16.1051 0.642059 -1.76469
upperneck 20.4948 1.45153 -0.45491
head 9.0876 0.487223 0.3183
rclavicle 1.98785e-016 -1.43125e-014
rhumerus -22.8921 -14.2365 -77.6073
rradius 27.7722
rwrist 28.1454
rhand -20.0583 -25.7086
rfingers 7.12502
rthumb 6.28351 -55.5955
lclavicle 1.98785e-016 -1.43125e-014
lhumerus -22.7675 -1.66368 84.1912
lradius 23.1732
lwrist 12.2378
lhand -28.9655 -6.13748
lfingers 7.12502
lthumb -2.31843 23.8297
rfemur -37.2472 -3.10268 20.6676
rtibia 41.6601
rfoot -17.5703 -3.3757
rtoes 5.46578
lfemur -37.3768 9.90191 -19.3189
ltibia 41.753
lfoot -16.9728 3.64632
ltoes -4.92223
308
root 0.431488 16.8256 -15.341 14.1747 -0.941866 -2.24975
lowerback 9.68455 -0.0628581 0.338761
upperback 4.99039 -0.0338826 1.97595
thorax -0.250124 -0.0363195 1.85366
lowerneck -16.2161 0.658659 -1.75399
upperneck 19.9531 1.48028 -0.515206
head 8.92178 0.500611 0.297973
rclavicle 8.44835e-015 3.97569e-016
rhumerus -23.152 -14.1883 -77.4844
rradius 27.8225
rwrist 28.0515
rhand -19.9903 -25.6512
rfingers 7.12502
rthumb 6.34914 -55.5361
lclavicle 8.44835e-015 3.97569e-016
lhumerus -23.0813 -1.76185 84.1954
lradius 23.2233
lwrist 12.4397
lhand -29.0908 -6.31325
lfingers 7.12502
lthumb -2.43941 23.6526
rfemur -38.3034 -3.08644 20.69
rtibia 42.5237
rfoot -17.795 -3.41977
rtoes 5.39822
lfemur -38.4212 9.92922 -19.4346
ltibia 42.5963
lfoot -17.189 3.77143
ltoes -5.04562
309
root 0.434522 16.7836 -15.3846 14.5422 -0.95958 -2.24112
lowerback 10.1187 -0.051981 0.323292
upperback 5.05052 -0.0155328 1.97993
thorax -0.425273 -0.0273261 1.86638
lowerneck -16.3339 0.675704 -1.74029
upperneck 19.4169 1.50931 -0.578812
head 8.7601 0.514064 0.276224
rclavicle -4.17448e-015 -6.16232e-015
rhumerus -23.4331 -14.1586 -77.3509
rradius 27.8594
rwrist 27.987
rhand -19.9247 -25.5674
rfingers 7.12502
rthumb 6.41252 -55.4503
lclavicle -4.17448e-015 -6.16232e-015
lhumerus -23.4191 -1.86001 84.2075
lradius 23.2635
lwrist 12.6298
lhand -29.1985 -6.47027
lfingers 7.12502
lthumb -2.54338 23.4943
rfemur -39.3716 -3.0712 20.705
rtibia 43.4076
rfoot -18.024 -3.48146
rtoes 5.29161
lfemur -39.473 9.94034 -19.555
ltibia 43.4589
lfoot -17.4138 3.92367
ltoes -5.17133
310
root 0.437506 16.7398 -15.4279 14.911 -0.981545 -2.22378
lowerback 10.559 -0.0394494 0.298975
upperback 5.11192 0.00403238 1.98072
thorax -0.601962 -0.0178257 1.88058
lowerneck -16.4585 0.692888 -1.73063
upperneck 18.8851 1.53838 -0.638542
head 8.60195 0.527736 0.256617
rclavicle 2.98177e-016 -1.45113e-014
rhumerus -23.7353 -14.1306 -77.2137
rradius 27.8957
rwrist 27.9247
rhand -19.8519 -25.4771
rfingers 7.12502
rthumb 6.48278 -55.3579
lclavicle 2.98177e-016 -1.45113e-014
lhumerus -23.775 -1.9603 84.2235
lradius 23.3041
lwrist 12.8457
lhand -29.2435 -6.51104
lfingers 7.12502
lthumb -2.58691 23.453
rfemur -40.4542 -3.05745 20.7113
rtibia 44.3108
rfoot -18.2591 -3.55676
rtoes 5.15312
lfemur -40.5334 9.94166 -19.684
ltibia 44.3385
lfoot -17.6489 4.10645
ltoes -5.3223
311
root 0.440318 16.694 -15.4709 15.2797 -1.00643 -2.19638
lowerback 11.0049 -0.0255159 0.265195
upperback 5.17531 0.0242242 1.97688
thorax -0.77914 -0.00809597 1.89515
lowerneck -16.5971 0.710082 -1.71681
upperneck 18.3612 1.56662 -0.699586
head 8.44978 0.541173 0.235967
rclavicle 5.46658e-015 7.7526e-015
rhumerus -24.0548 -14.118 -77.0718
rradius 27.9257
rwrist 27.8797
rhand -19.7709 -25.3773
rfingers 7.12502
rthumb 6.56103 -55.2557
lclavicle 5.46658e-015 7.7526e-015
lhumerus -24.1551 -2.07894 84.2457
lradius 23.3489
lwrist 13.0999
lhand -29.2781 -6.5064
lfingers 7.12502
lthumb -2.62026 23.4572
rfemur -41.548 -3.04193 20.7062
rtibia 45.2338
rfoot -18.5064 -3.65073
rtoes 4.9869
lfemur -41.5998 9.93554 -19.823
ltibia 45.2335
lfoot -17.8964 4.3185
ltoes -5.52132
312
root 0.443053 16.6466 -15.5132 15.6498 -1.03626 -2.16148
lowerback 11.4564 -0.0114157 0.222698
upperback 5.23874 0.0433692 1.9692
thorax -0.958784 0.00105925 1.91068
lowerneck -16.7375 0.72809 -1.70463
upperneck 17.8352 1.59553 -0.759077
head 8.29784 0.555133 0.216276
rclavicle -3.97569e-015 -3.57812e-015
rhumerus -24.396 -14.1007 -76.9304
rradius 27.9614
rwrist 27.83
rhand -19.6706 -25.2927
rfingers 7.12502
rthumb 6.65782 -55.168
lclavicle -3.97569e-015 -3.57812e-015
lhumerus -24.5593 -2.21494 84.27
lradius 23.4004
lwrist 13.3991
lhand -29.2416 -6.34358
lfingers 7.12502
lthumb -2.58506 23.6205
rfemur -42.6505 -3.02341 20.6911
rtibia 46.1741
rfoot -18.7705 -3.75831
rtoes 4.80252
lfemur -42.6728 9.92135 -19.9692
ltibia 46.1438
lfoot -18.1571 4.5678
ltoes -5.79261
